<?xml version="1.0" encoding="utf-8"?>
<!-- Generator: Adobe Illustrator 18.1.1, SVG Export Plug-In . SVG Version: 6.00 Build 0)  -->
<svg version="1.1" id="Layer_1" xmlns="http://www.w3.org/2000/svg" xmlns:xlink="http://www.w3.org/1999/xlink" x="0px" y="0px"
	 viewBox="0 0 325.6 325.6" enable-background="new 0 0 325.6 325.6" xml:space="preserve">
<circle fill="#FFFFFF" stroke="#CCCCCC" stroke-miterlimit="10" cx="162.8" cy="162.8" r="162.3"/>
<g>
	<path fill="#8C3A3B" d="M162.7,304.1c-14.7,0-28.4-5.7-38.7-16.2l-43.4-43.8c0,0,0-0.1,0-0.1l19.8-19.6c0,0,0.1,0,0.1,0l43.4,43.8
		c5,5.1,11.7,7.9,18.9,7.9c7.2,0,13.9-2.8,18.9-8l14.4-14.7c10.2-10.4,10-27.2-0.4-37.4l-44.1-43.4l-42.9-43.5
		c-20.7-21-20.8-55.5-0.1-76.6l15.2-15.5c10.2-10.4,24.2-16.2,38.8-16.2h0.1c14.7,0,28.4,5.7,38.7,16.2l43.1,43.5c0,0,0,0.1,0,0.1
		l-19.8,19.6c0,0-0.1,0-0.1,0l-43.1-43.5c-5-5-11.8-7.9-18.9-7.9h0c-7.1,0-13.9,2.9-18.9,7.9l-15.2,15.5
		c-10.1,10.3-10.1,26.9,0,37.2l42.9,43.5l43.9,43.2c21.4,21,21.7,55.6,0.7,77l-14.5,14.8c-10.2,10.4-24.2,16.3-38.7,16.3H162.7z"/>
</g>
</svg>
